<svg width="18" height="18" viewBox="0 0 18 18" fill="none" xmlns="http://www.w3.org/2000/svg">
<g id="odnoklassniki 3" clip-path="url(#clip0_0_358)">
<g id="Group">
<path id="Vector" d="M3.54073 9.66077C3.08098 10.5645 3.60298 10.9965 4.79398 11.7345C5.80648 12.36 7.20523 12.5888 8.10373 12.6803C7.73548 13.0343 9.42298 11.4113 4.56298 16.086C3.53248 17.0738 5.19148 18.6585 6.22123 17.6918L9.00898 15.003C10.0762 16.0298 11.0992 17.0138 11.7967 17.6955C12.8272 18.666 14.4855 17.0948 13.4662 16.0898C13.3897 16.017 9.68848 12.4665 9.91423 12.684C10.824 12.5925 12.2017 12.3503 13.2022 11.7383L13.2015 11.7375C14.3925 10.9958 14.9145 10.5645 14.4615 9.66077C14.1877 9.14777 13.4497 8.71877 12.4672 9.46052C12.4672 9.46052 11.1405 10.4768 9.00073 10.4768C6.86023 10.4768 5.53423 9.46052 5.53423 9.46052C4.55248 8.71502 3.81148 9.14777 3.54073 9.66077Z" fill="#E08641"/>
<path id="Vector_2" d="M9.00097 9.10649C11.6095 9.10649 13.7395 7.06799 13.7395 4.55849C13.7395 2.03849 11.6095 -7.62939e-06 9.00097 -7.62939e-06C6.39172 -7.62939e-06 4.26172 2.03849 4.26172 4.55849C4.26172 7.06799 6.39172 9.10649 9.00097 9.10649ZM9.00097 2.30924C10.2827 2.30924 11.3282 3.31499 11.3282 4.55849C11.3282 5.79149 10.2827 6.79724 9.00097 6.79724C7.71922 6.79724 6.67372 5.79149 6.67372 4.55849C6.67297 3.31424 7.71847 2.30924 9.00097 2.30924Z" fill="#E08641"/>
</g>
</g>
<defs>
<clipPath id="clip0_0_358">
<rect width="18" height="18" fill="white"/>
</clipPath>
</defs>
</svg>
